<svg width="20" height="20" viewBox="0 0 20 20" fill="none" xmlns="http://www.w3.org/2000/svg">
<circle cx="10" cy="10" r="10" fill="#1E1E1E"/>
<path d="M6.61509 5.82721L10 3.98438L13.3849 5.82721L12.1405 6.508L10 5.34596L7.85954 6.508L6.61509 5.82721ZM13.3849 8.15129L12.1405 7.4705L10 8.63255L7.85954 7.4705L6.61509 8.15129V9.51288L8.75554 10.6749V12.999L10 13.6798L11.2445 12.999V10.6749L13.3849 9.51288V8.15129ZM13.3849 11.837V10.4754L12.1405 11.1562V12.5177L13.3849 11.837ZM14.2685 12.3182L12.128 13.4802V14.8418L15.5129 12.999V9.31332L14.2685 9.99413V12.3182ZM13.024 6.98925L14.2685 7.67004V9.03163L15.5129 8.35084V6.98925L14.2685 6.30846L13.024 6.98925ZM8.75554 13.9733V15.3349L10 16.0156L11.2445 15.3349V13.9733L10 14.654L8.75554 13.9733ZM6.61509 11.837L7.85954 12.5177V11.1562L6.61509 10.4754V11.837ZM8.75554 6.98925L10 7.67004L11.2445 6.98925L10 6.30846L8.75554 6.98925ZM5.73151 7.67004L6.97597 6.98925L5.73151 6.30846L4.48706 6.98925V8.35084L5.73151 9.03163V7.67004ZM5.73151 9.99413L4.48706 9.31332V12.999L7.87197 14.8418V13.4802L5.73151 12.3182V9.99413Z" fill="#F1B90C"/>
</svg>
