<svg width="174" height="46" viewBox="0 0 174 46" fill="none" xmlns="http://www.w3.org/2000/svg">
<path d="M131.325 9.41602C132.337 9.41602 133.233 9.63342 134.008 10.0723L134.295 10.2451C134.947 10.6669 135.471 11.2223 135.865 11.9102L136.029 12.2129C136.384 12.933 136.561 13.759 136.561 14.6885C136.561 15.751 136.33 16.6846 135.865 17.4854L135.689 17.7725C135.257 18.4224 134.696 18.9396 134.008 19.3232L133.712 19.4775C133.008 19.8134 132.211 19.9805 131.325 19.9805C130.489 19.9803 129.719 19.787 129.022 19.3994V19.3984C128.721 19.2281 128.446 19.0204 128.198 18.7764V23.5186H125.617V9.5293H128.084V10.6865C128.35 10.4102 128.65 10.1799 128.984 9.99707C129.67 9.6087 130.452 9.41614 131.325 9.41602ZM76.9944 19.8477H74.5276V18.71C74.2684 18.9828 73.9753 19.213 73.6477 19.3984C72.9611 19.787 72.1725 19.9804 71.2864 19.9805C70.299 19.9804 69.4038 19.7623 68.6047 19.3242L68.6028 19.3232C67.8169 18.8723 67.1973 18.2527 66.7463 17.4668C66.294 16.6784 66.0696 15.7507 66.0696 14.6885C66.0696 13.6263 66.2941 12.6985 66.7463 11.9102C67.1974 11.1241 67.8173 10.5107 68.6038 10.0723H68.6047C69.4038 9.63408 70.299 9.41609 71.2864 9.41602C72.1479 9.41606 72.9235 9.60878 73.6096 9.99707C73.9119 10.1626 74.1864 10.367 74.4329 10.6094V5.59375H76.9944V19.8477ZM83.8215 9.41602C84.8214 9.41604 85.717 9.63359 86.5042 10.0723C87.291 10.5109 87.9106 11.131 88.3616 11.9297C88.8136 12.7305 89.0373 13.6705 89.0374 14.7451C89.0373 14.8485 89.0312 14.9637 89.0188 15.0898C89.0187 15.2178 89.0122 15.3406 88.9993 15.457L88.9885 15.5527H81.0969C81.1632 15.8412 81.2697 16.109 81.4163 16.3555C81.6828 16.8037 82.0584 17.1491 82.5452 17.3926C83.0324 17.6362 83.5958 17.7597 84.2375 17.7598C84.7939 17.7598 85.292 17.6729 85.7317 17.502C86.1695 17.3316 86.5599 17.0634 86.9026 16.6963L86.9836 16.6094L88.3909 18.2266L88.3303 18.2969C87.8645 18.8402 87.2755 19.2597 86.5676 19.5557C85.8714 19.8393 85.0749 19.9805 84.1809 19.9805C83.0442 19.9804 82.0419 19.7564 81.179 19.3057L81.178 19.3047C80.3295 18.8418 79.6647 18.2103 79.1877 17.4111V17.4102C78.7233 16.6101 78.4915 15.7018 78.4915 14.6885C78.4915 13.6634 78.7163 12.7546 79.1682 11.9668L79.3499 11.6758C79.7923 11.0149 80.3638 10.4864 81.0627 10.0918H81.0637C81.8759 9.64058 82.7964 9.41607 83.8215 9.41602ZM101.393 16.625C101.848 16.6251 102.24 16.7795 102.563 17.0879C102.891 17.3892 103.052 17.7989 103.052 18.3027C103.052 18.7833 102.89 19.1895 102.566 19.5137L102.565 19.5156C102.242 19.8252 101.848 19.9804 101.393 19.9805C100.937 19.9804 100.544 19.8253 100.221 19.5156L100.219 19.5137C99.8951 19.1896 99.7337 18.7831 99.7336 18.3027C99.7337 17.799 99.8944 17.3892 100.223 17.0879C100.546 16.7796 100.938 16.6251 101.393 16.625ZM108.911 9.41602C109.911 9.41606 110.807 9.63361 111.594 10.0723C112.381 10.5109 113 11.131 113.451 11.9297C113.903 12.7305 114.127 13.6705 114.127 14.7451C114.127 14.8485 114.12 14.9637 114.108 15.0898C114.108 15.2178 114.102 15.3406 114.089 15.457L114.078 15.5527H106.187C106.253 15.8412 106.36 16.1089 106.506 16.3555C106.773 16.8037 107.148 17.1491 107.635 17.3926C108.122 17.6362 108.686 17.7597 109.327 17.7598C109.884 17.7598 110.381 17.6728 110.821 17.502C111.259 17.3316 111.65 17.0635 111.992 16.6963L112.073 16.6094L113.481 18.2266L113.42 18.2969C112.954 18.8401 112.366 19.2597 111.658 19.5557H111.657C110.961 19.8392 110.165 19.9805 109.271 19.9805C108.134 19.9804 107.132 19.7564 106.269 19.3057L106.268 19.3047C105.419 18.8418 104.755 18.2103 104.278 17.4111V17.4102C103.813 16.6101 103.581 15.7019 103.581 14.6885C103.581 13.6634 103.806 12.7546 104.258 11.9668L104.44 11.6758C104.882 11.015 105.454 10.4864 106.153 10.0918H106.154C106.966 9.64061 107.886 9.41607 108.911 9.41602ZM149.711 9.41602C150.711 9.41602 151.607 9.63361 152.394 10.0723C153.181 10.5109 153.8 11.131 154.251 11.9297C154.703 12.7305 154.928 13.6705 154.928 14.7451C154.928 14.8492 154.921 14.9656 154.908 15.0928C154.908 15.2199 154.902 15.3414 154.889 15.457L154.878 15.5527H146.987C147.053 15.8411 147.159 16.109 147.306 16.3555C147.572 16.8036 147.948 17.1492 148.435 17.3926C148.922 17.6362 149.486 17.7597 150.128 17.7598C150.684 17.7597 151.182 17.6728 151.621 17.502C152.059 17.3316 152.449 17.0634 152.792 16.6963L152.874 16.6094L154.22 18.1562L154.281 18.2266L154.221 18.2969C153.755 18.8402 153.166 19.2596 152.458 19.5557H152.457C151.761 19.8392 150.964 19.9805 150.071 19.9805C148.934 19.9804 147.932 19.7564 147.07 19.3057L147.068 19.3047C146.219 18.8418 145.555 18.2102 145.078 17.4111L145.077 17.4102C144.613 16.6102 144.382 15.7017 144.382 14.6885C144.382 13.6634 144.606 12.7546 145.058 11.9668H145.059C145.522 11.1685 146.155 10.5427 146.953 10.0918L147.263 9.93262C147.997 9.58737 148.814 9.4161 149.711 9.41602ZM160.118 9.41602C160.807 9.41602 161.503 9.49262 162.204 9.64551C162.906 9.7986 163.492 10.0164 163.959 10.3018L164.044 10.3535L163.091 12.2393L163.038 12.3428L162.939 12.2832C162.469 11.9989 161.994 11.8081 161.516 11.71H161.515L161.513 11.709C161.042 11.5974 160.57 11.542 160.1 11.542C159.389 11.542 158.877 11.6482 158.549 11.8467C158.232 12.0465 158.088 12.2873 158.088 12.5693C158.088 12.8405 158.188 13.0322 158.381 13.1611C158.594 13.3033 158.878 13.4195 159.236 13.5059C159.597 13.5931 159.997 13.6679 160.435 13.7305C160.893 13.7815 161.346 13.8649 161.791 13.9795C162.239 14.0946 162.65 14.2545 163.024 14.46C163.419 14.6577 163.737 14.942 163.975 15.3115C164.216 15.6871 164.332 16.1699 164.332 16.751C164.332 17.4049 164.135 17.978 163.74 18.4648L163.59 18.6416C163.223 19.0414 162.732 19.3586 162.125 19.5947L162.124 19.5957C161.428 19.8534 160.601 19.9805 159.646 19.9805C158.792 19.9804 157.968 19.8722 157.177 19.6553L157.175 19.6543C156.399 19.4254 155.775 19.1501 155.309 18.8262L155.232 18.7725L156.236 16.7852L156.336 16.8496C156.78 17.1332 157.313 17.3697 157.936 17.5566C158.557 17.7429 159.177 17.8349 159.797 17.835C160.536 17.835 161.047 17.7341 161.349 17.5488L161.351 17.5479C161.665 17.3618 161.809 17.1227 161.809 16.8271C161.809 16.5852 161.713 16.4122 161.52 16.2939L161.516 16.292C161.304 16.1506 161.021 16.0406 160.664 15.9668C160.301 15.8917 159.894 15.8225 159.442 15.7598L158.77 15.6504C158.545 15.6092 158.318 15.5633 158.09 15.5127L158.086 15.5117C157.637 15.3962 157.225 15.2348 156.851 15.0283L156.848 15.0273C156.468 14.8045 156.158 14.509 155.922 14.1416C155.681 13.7657 155.565 13.2757 155.565 12.6826C155.565 12.0178 155.755 11.4393 156.137 10.9521C156.493 10.4862 156.979 10.1259 157.591 9.87012L157.715 9.82031C158.399 9.54964 159.201 9.41609 160.118 9.41602ZM169.289 9.41602C169.978 9.41604 170.674 9.49265 171.374 9.64551C172.076 9.79859 172.662 10.0164 173.129 10.3018L173.214 10.3535L172.208 12.3428L172.11 12.2832C171.64 11.9989 171.165 11.8081 170.687 11.71H170.685L170.683 11.709C170.212 11.5974 169.74 11.542 169.27 11.542C168.559 11.5421 168.047 11.6482 167.719 11.8467C167.402 12.0465 167.258 12.2873 167.258 12.5693C167.258 12.8405 167.358 13.0322 167.551 13.1611C167.764 13.3034 168.049 13.4195 168.406 13.5059C168.768 13.5931 169.169 13.6679 169.607 13.7305C170.065 13.7815 170.517 13.865 170.962 13.9795C171.41 14.0946 171.82 14.2546 172.194 14.46C172.589 14.6577 172.907 14.942 173.145 15.3115C173.386 15.6871 173.502 16.1698 173.502 16.751C173.502 17.4049 173.305 17.978 172.91 18.4648L172.76 18.6416C172.392 19.0414 171.902 19.3586 171.295 19.5947L171.294 19.5957C170.598 19.8534 169.771 19.9805 168.816 19.9805C167.962 19.9804 167.138 19.8722 166.347 19.6553L166.345 19.6543C165.569 19.4254 164.945 19.1502 164.479 18.8262L164.402 18.7725L165.406 16.7852L165.506 16.8496C165.95 17.1332 166.483 17.3697 167.106 17.5566C167.727 17.7429 168.347 17.8349 168.967 17.835C169.706 17.835 170.217 17.7341 170.519 17.5488L170.521 17.5479C170.835 17.3618 170.979 17.1227 170.979 16.8271C170.979 16.5852 170.883 16.4122 170.69 16.2939L170.686 16.292C170.474 16.1507 170.191 16.0406 169.834 15.9668C169.471 15.8918 169.063 15.8225 168.612 15.7598C168.167 15.6963 167.717 15.6141 167.26 15.5127L167.258 15.5117H167.256C166.807 15.3962 166.395 15.2347 166.021 15.0283L166.018 15.0273C165.638 14.8046 165.329 14.5088 165.093 14.1416C164.851 13.7657 164.736 13.2758 164.736 12.6826C164.736 12.0178 164.925 11.4392 165.307 10.9521C165.686 10.4552 166.214 10.0783 166.885 9.82031C167.569 9.54961 168.372 9.41605 169.289 9.41602ZM94.2473 12.7617L96.6477 9.57227L96.6799 9.5293H99.5061L95.6418 14.5723L99.675 19.8477H96.7356L94.2053 16.4277L91.6731 19.8047L91.6409 19.8477H88.7581L92.7834 14.6055L88.9299 9.5293H91.8303L94.2473 12.7617ZM119.337 12.7617L121.738 9.57227L121.77 9.5293H124.595L124.463 9.70215L120.732 14.5723L124.766 19.8477H121.825L119.295 16.4277L116.763 19.8047L116.731 19.8477H113.848L117.873 14.6055L114.02 9.5293H116.92L119.337 12.7617ZM144.083 11.9131L143.949 11.8789C143.856 11.8555 143.77 11.8447 143.692 11.8447H143.684L143.676 11.8438C143.593 11.8319 143.51 11.8252 143.427 11.8252C142.554 11.8253 141.87 12.0832 141.365 12.5889L141.364 12.5898C140.862 13.0798 140.602 13.8231 140.602 14.8398V19.8477H138.022V9.5293H140.488V10.7861C140.758 10.4515 141.09 10.1749 141.483 9.95898L141.484 9.95801C142.159 9.59432 142.992 9.41607 143.976 9.41602H144.083V11.9131ZM71.5696 11.6357C71.019 11.6359 70.5264 11.7587 70.0901 12.001C69.6672 12.243 69.3206 12.5947 69.052 13.0586C68.7986 13.5057 68.6692 14.0476 68.6692 14.6885C68.6692 15.3166 68.7984 15.8596 69.053 16.3203C69.3214 16.7833 69.6677 17.1343 70.0901 17.376L70.1721 17.4199C70.5878 17.6331 71.0533 17.7411 71.5696 17.7412C72.1206 17.7412 72.6072 17.6188 73.0305 17.377L73.0315 17.376C73.4669 17.1341 73.812 16.7828 74.0676 16.3203L74.0686 16.3184C74.3352 15.8579 74.4709 15.3159 74.4709 14.6885C74.4709 14.0479 74.3353 13.5065 74.0696 13.0596L74.0676 13.0566C73.812 12.5941 73.4669 12.2429 73.0315 12.001L73.0305 12C72.6072 11.7582 72.1206 11.6357 71.5696 11.6357ZM131.061 11.6367C130.51 11.6368 130.017 11.7585 129.58 12.001C129.145 12.2429 128.8 12.5942 128.544 13.0566L128.543 13.0576C128.289 13.5048 128.16 14.0473 128.16 14.6885C128.16 15.3166 128.29 15.8596 128.544 16.3203C128.8 16.7828 129.145 17.134 129.58 17.376C130.017 17.6185 130.51 17.7411 131.061 17.7412C131.612 17.7412 132.098 17.6188 132.522 17.377L132.523 17.376C132.958 17.1341 133.303 16.7828 133.559 16.3203C133.813 15.8595 133.943 15.3167 133.943 14.6885C133.943 14.0471 133.814 13.5049 133.56 13.0576L133.559 13.0566C133.303 12.5941 132.958 12.2429 132.523 12.001H132.522C132.098 11.7591 131.612 11.6367 131.061 11.6367ZM83.8215 11.5225C83.2575 11.5225 82.765 11.6451 82.342 11.8867C81.9315 12.1286 81.6046 12.4673 81.3616 12.9043C81.2222 13.1612 81.1249 13.4491 81.0696 13.7676H86.5696C86.5176 13.4465 86.4148 13.1534 86.2629 12.8877C86.0202 12.463 85.6876 12.1294 85.2629 11.8867H85.262C84.8519 11.6456 84.3726 11.5225 83.8215 11.5225ZM108.911 11.5225C108.347 11.5225 107.855 11.6451 107.432 11.8867C107.021 12.1286 106.694 12.4673 106.451 12.9043C106.312 13.1612 106.214 13.4491 106.158 13.7676H111.659C111.607 13.4465 111.505 13.1534 111.353 12.8877C111.11 12.463 110.777 12.1294 110.353 11.8867H110.352C109.942 11.6456 109.462 11.5225 108.911 11.5225ZM149.711 11.5225C149.148 11.5226 148.656 11.6455 148.234 11.8867C147.822 12.1288 147.495 12.4674 147.251 12.9053C147.112 13.1619 147.014 13.4495 146.959 13.7676H152.459C152.407 13.4465 152.305 13.1534 152.154 12.8877C151.911 12.4629 151.577 12.1295 151.153 11.8867H151.152C150.742 11.6456 150.262 11.5225 149.711 11.5225Z" fill="#2744FF"/>
<path d="M23.6172 3.51551e-06C25.1382 3.47368e-06 25.52 0.000427833 27.1377 0.0957066H27.1387C28.8552 0.19681 29.974 0.262905 31.8027 0.666996C34.2923 1.21716 35.5824 2.30074 37.1318 3.60254L37.207 3.66504C37.8462 4.20194 38.4876 4.73791 39.1045 5.29981C39.3512 5.5245 39.5995 5.61287 39.9287 5.61231C44.5283 5.60452 48.5566 5.60729 53.1562 5.6084C53.8439 5.60857 53.8135 5.61437 53.8867 6.31543C54.112 8.47172 54.2652 10.6327 54.208 12.7998C54.1528 14.8935 53.9959 16.977 53.2227 18.9639C51.7966 22.6281 49.1056 24.8859 45.418 26.0566C43.4166 26.692 41.9153 26.9921 39.8594 27.3701C36.5988 27.9696 33.3929 28.5606 30.3652 29.959C27.839 31.1258 25.5068 32.602 23.3252 34.3223C19.2828 37.51 15.7667 41.2339 12.374 45.083C12.2385 45.2367 12.02 45.4144 11.9932 45.4414C11.9663 45.4685 11.8748 45.5611 11.7217 45.6191C12.9501 42.2308 14.6576 39.2131 16.8086 36.4014C19.8828 32.4396 23.5827 29.2819 28.0801 27.0967C30.9182 25.7177 33.9319 25.0871 37.0215 24.5039C39.4771 24.0404 41.4005 23.774 43.8145 23.0967C45.9448 22.4989 47.7878 21.4546 49.085 19.5996C50.0643 18.1991 50.5717 16.6252 50.749 14.9375C50.9332 13.1845 50.8495 11.4261 50.8262 9.66993C50.816 8.90873 50.7947 8.90815 50.0146 8.90821C46.2061 8.90849 42.9687 8.9054 39.1602 8.917C38.7827 8.91815 38.4945 8.80953 38.2119 8.56348C37.2734 7.74599 36.2997 6.96784 35.3691 6.14161C33.8202 4.76627 33.1364 4.28466 29.9941 3.66504C27.8993 3.18146 26.7564 3.18164 23.5156 3.18164C22.1301 3.08177 20.7101 3.2923 19.3145 3.375C17.4994 3.48255 15.9065 4.12286 14.6592 5.45313C12.3658 7.89923 10.1128 10.3836 7.84375 12.8525C7.24915 13.4995 6.65504 14.148 6.0625 14.7969C5.91647 14.9568 5.75258 15.1064 5.67969 15.3281C5.72757 15.3795 5.76004 15.4341 5.80762 15.4609C7.3158 16.3122 8.32725 17.6753 9.40234 18.9678C10.7991 20.6469 12.5816 21.5296 14.751 21.7217C16.7355 21.8973 18.6227 21.5469 20.4688 20.8525L20.4746 20.8496C20.7409 20.7495 21.2374 20.5631 21.71 19.9961C22.5668 19.0437 22.3955 16.0334 21.71 11.3311C21.71 11.3311 24.9642 14.1879 24.7568 19.9961C24.7058 21.4244 23.5518 22.8702 22.5996 23.3535C20.4503 24.4445 19.3577 24.6917 16.9473 24.8936C12.787 25.2419 9.22669 24.0494 6.49609 20.7588C5.92655 20.0724 5.3792 19.3646 4.71484 18.7598C4.33008 18.4095 3.90661 18.139 3.4209 17.9502C2.4113 17.5578 1.40786 17.1495 0.40332 16.7441C0.271683 16.691 0.115858 16.6703 0 16.4648C0.371636 16.0524 0.75376 15.6192 1.14551 15.1953C3.84905 12.2699 6.55484 9.34599 9.25977 6.42188C10.4228 5.16462 11.5248 3.8473 12.7754 2.67578C14.4296 1.12623 16.4368 0.368132 18.6787 0.152347C20.2224 0.00377182 21.9956 -0.000146121 23.6143 3.51551e-06H23.6172ZM31.5273 8.57032C32.645 7.5187 34.2189 7.74185 34.8428 9.01172C35.2487 9.83839 35.0104 10.8953 34.2871 11.4775C33.5846 12.0428 32.5132 12.0438 31.8105 11.4795C31.0544 10.872 30.8253 9.84648 31.2588 8.98438C31.3274 8.84809 31.4225 8.72479 31.5273 8.57032Z" fill="#2744FF"/>
</svg>
