<svg width="16" height="16" viewBox="0 0 16 16" fill="none" xmlns="http://www.w3.org/2000/svg">
  <rect width="16" height="16" rx="4" fill="#9945FF"/>
  <path d="M4.5 10.2L5.6 9.1C5.65 9.05 5.72 9.02 5.8 9.02H11.3C11.42 9.02 11.48 9.17 11.39 9.26L10.4 10.25C10.35 10.3 10.28 10.33 10.2 10.33H4.61C4.49 10.33 4.43 10.18 4.5 10.2ZM4.5 5.75L5.6 6.85C5.65 6.9 5.72 6.93 5.8 6.93H11.3C11.42 6.93 11.48 6.78 11.39 6.69L10.4 5.7C10.35 5.65 10.28 5.62 10.2 5.62H4.61C4.49 5.62 4.43 5.77 4.5 5.75ZM10.4 7.95L11.39 8.94C11.48 9.03 11.42 9.18 11.3 9.18H5.8C5.72 9.18 5.65 9.15 5.6 9.1L4.5 8C4.43 7.91 4.49 7.76 4.61 7.76H10.2C10.28 7.76 10.35 7.79 10.4 7.84V7.95Z" fill="white"/>
</svg>
