<svg width="24" height="24" viewBox="0 0 24 24" fill="none" xmlns="http://www.w3.org/2000/svg">
<path d="M6.96819 3.00391C7.22059 2.98372 7.4722 3.0551 7.6762 3.20508L7.79436 3.30567L12.9135 8.40137C13.1009 8.58887 13.2109 8.84059 13.2211 9.10547C13.2312 9.3705 13.1409 9.62974 12.9682 9.83106C12.7954 10.0324 12.553 10.1611 12.2895 10.1914C12.0262 10.2216 11.7611 10.1517 11.5473 9.99512L11.4272 9.89453L8.10588 6.58496V19.1357C8.10588 19.3809 8.00458 19.6168 7.82073 19.7959C7.63061 19.9779 7.38143 20.0861 7.11858 20.0996C6.85158 20.1152 6.58605 20.036 6.3803 19.8789C6.2802 19.8048 6.19513 19.7115 6.13128 19.6045C6.06759 19.4977 6.02598 19.379 6.00823 19.2559L6.00042 19.1357V6.62989L2.80315 9.88477C2.61721 10.0741 2.36702 10.1867 2.10198 10.1992C1.83692 10.2116 1.57628 10.1232 1.37346 9.95215C1.17072 9.78088 1.03953 9.53883 1.00725 9.27539C0.975056 9.01189 1.04409 8.7454 1.19963 8.53028L1.30022 8.40918L6.3012 3.31543C6.47866 3.13485 6.71583 3.02423 6.96819 3.00391ZM16.8959 3.00196C17.1587 3.01555 17.408 3.12367 17.5981 3.30567C17.7818 3.48478 17.8822 3.72076 17.8823 3.96582V16.5166L21.2045 13.207L21.3237 13.1064C21.5376 12.9497 21.8034 12.8789 22.0668 12.9092C22.3302 12.9396 22.5729 13.0683 22.7455 13.2695C22.9182 13.4708 23.0085 13.7302 22.9985 13.9951C22.9884 14.2601 22.8782 14.5116 22.6908 14.6992L17.5717 19.7959L17.4535 19.8965C17.2496 20.0465 16.9979 20.1178 16.7455 20.0977C16.4931 20.0774 16.2561 19.9667 16.0785 19.7861L11.0766 14.6914L10.976 14.5703C10.8207 14.3553 10.7524 14.0895 10.7846 13.8262C10.8169 13.5628 10.9471 13.3207 11.1498 13.1494C11.3526 12.9783 11.6133 12.89 11.8783 12.9023C12.1434 12.9148 12.3945 13.0266 12.5805 13.2158L15.7768 16.4697V3.96582L15.7846 3.84571C15.8024 3.72246 15.8448 3.604 15.9086 3.49707C15.9725 3.39005 16.0574 3.29681 16.1576 3.22266C16.3635 3.06565 16.6289 2.98625 16.8959 3.00196Z" fill="#2744FF"/>
<path d="M6.96819 3.00391L6.94825 2.7547L6.94813 2.75472L6.96819 3.00391ZM7.6762 3.20508L7.83825 3.01471L7.83146 3.00894L7.82429 3.00366L7.6762 3.20508ZM7.79436 3.30567L7.97073 3.12848L7.96383 3.12161L7.95641 3.1153L7.79436 3.30567ZM12.9135 8.40137L13.0903 8.22464L13.0899 8.22419L12.9135 8.40137ZM13.2211 9.10547L13.4709 9.09597L13.4709 9.09583L13.2211 9.10547ZM12.9682 9.83106L13.1579 9.99385L13.158 9.99381L12.9682 9.83106ZM12.2895 10.1914L12.318 10.4398L12.3181 10.4398L12.2895 10.1914ZM11.5473 9.99512L11.3868 10.1868L11.393 10.192L11.3996 10.1968L11.5473 9.99512ZM11.4272 9.89453L11.2507 10.0716L11.2584 10.0793L11.2667 10.0862L11.4272 9.89453ZM8.10589 6.58496L8.28235 6.40787L7.85589 5.98292V6.58496H8.10589ZM7.82073 19.7959L7.99361 19.9765L7.9952 19.975L7.82073 19.7959ZM7.11858 20.0996L7.10575 19.8499L7.10399 19.85L7.11858 20.0996ZM6.3803 19.8789L6.53201 19.6802L6.5291 19.678L6.3803 19.8789ZM6.13128 19.6045L5.91654 19.7325L5.91662 19.7326L6.13128 19.6045ZM6.00823 19.2559L5.75876 19.2721L5.75939 19.2819L5.76079 19.2915L6.00823 19.2559ZM6.00042 19.1357H5.75042V19.1439L5.75094 19.152L6.00042 19.1357ZM6.00042 6.62989H6.25042V6.01863L5.82207 6.45469L6.00042 6.62989ZM2.80315 9.88477L2.9815 10.06L2.9815 10.06L2.80315 9.88477ZM2.10198 10.1992L2.1136 10.449L2.11374 10.4489L2.10198 10.1992ZM1.37346 9.95215L1.21214 10.1431L1.21226 10.1432L1.37346 9.95215ZM1.00725 9.27539L0.759098 9.30571L0.759108 9.3058L1.00725 9.27539ZM1.19963 8.53028L1.00733 8.37053L1.00196 8.37699L0.997045 8.38379L1.19963 8.53028ZM1.30022 8.40918L1.12183 8.23404L1.11455 8.24145L1.10791 8.24944L1.30022 8.40918ZM6.3012 3.31543L6.12289 3.1402L6.1228 3.14029L6.3012 3.31543ZM16.8959 3.00196L16.8812 3.25153L16.883 3.25162L16.8959 3.00196ZM17.5981 3.30567L17.7726 3.12664L17.771 3.12511L17.5981 3.30567ZM17.8823 3.96582H18.1323V3.96582L17.8823 3.96582ZM17.8823 16.5166H17.6323V17.1185L18.0587 16.6937L17.8823 16.5166ZM21.2045 13.207L21.0432 13.016L21.0354 13.0227L21.0281 13.0299L21.2045 13.207ZM21.3237 13.1064L21.1759 12.9048L21.169 12.9099L21.1624 12.9154L21.3237 13.1064ZM22.0668 12.9092L22.0955 12.6608L22.0954 12.6608L22.0668 12.9092ZM22.7455 13.2695L22.9353 13.1068L22.9353 13.1067L22.7455 13.2695ZM22.9985 13.9951L23.2483 14.0046V14.0046L22.9985 13.9951ZM22.6908 14.6992L22.8672 14.8764L22.8677 14.8759L22.6908 14.6992ZM17.5717 19.7959L17.7338 19.9863L17.7412 19.9799L17.7481 19.9731L17.5717 19.7959ZM17.4535 19.8965L17.6017 20.0979L17.6088 20.0926L17.6156 20.0869L17.4535 19.8965ZM16.7455 20.0977L16.7256 20.3469L16.7257 20.3469L16.7455 20.0977ZM16.0785 19.7861L15.9001 19.9613L15.9003 19.9614L16.0785 19.7861ZM11.0766 14.6914L10.8843 14.8511L10.8909 14.8591L10.8982 14.8666L11.0766 14.6914ZM10.976 14.5703L10.7733 14.7167L10.7783 14.7236L10.7837 14.7301L10.976 14.5703ZM10.7846 13.8262L10.5364 13.7958L10.5364 13.7959L10.7846 13.8262ZM11.1498 13.1494L10.9886 12.9584L10.9885 12.9585L11.1498 13.1494ZM11.8783 12.9023L11.8901 12.6526L11.8899 12.6526L11.8783 12.9023ZM12.5805 13.2158L12.7588 13.0406L12.7588 13.0406L12.5805 13.2158ZM15.7768 16.4697L15.5984 16.6449L16.0268 17.081V16.4697H15.7768ZM15.7768 3.96582L15.5273 3.9496L15.5268 3.9577V3.96582H15.7768ZM15.7846 3.84571L15.5372 3.81004L15.5358 3.81972L15.5351 3.82948L15.7846 3.84571ZM15.9086 3.49707L15.694 3.36888L15.6939 3.36895L15.9086 3.49707ZM16.1576 3.22266L16.3064 3.42364L16.3093 3.42143L16.1576 3.22266ZM6.96819 3.00391L6.98813 3.25311C7.18072 3.23771 7.37265 3.2922 7.52811 3.4065L7.6762 3.20508L7.82429 3.00366C7.57175 2.81799 7.26047 2.72973 6.94825 2.7547L6.96819 3.00391ZM7.6762 3.20508L7.51415 3.39545L7.63231 3.49603L7.79436 3.30567L7.95641 3.1153L7.83825 3.01471L7.6762 3.20508ZM7.79436 3.30567L7.61799 3.48285L12.7371 8.57855L12.9135 8.40137L13.0899 8.22419L7.97073 3.12848L7.79436 3.30567ZM12.9135 8.40137L12.7367 8.5781C12.8796 8.7211 12.9635 8.91316 12.9713 9.11511L13.2211 9.10547L13.4709 9.09583C13.4583 8.76802 13.3222 8.45664 13.0903 8.22464L12.9135 8.40137ZM13.2211 9.10547L12.9713 9.11497C12.979 9.31709 12.9101 9.51481 12.7784 9.6683L12.9682 9.83106L13.158 9.99381C13.3716 9.74467 13.4834 9.42391 13.4709 9.09597L13.2211 9.10547ZM12.9682 9.83106L12.7785 9.66827C12.6467 9.82178 12.4619 9.91992 12.2609 9.94305L12.2895 10.1914L12.3181 10.4398C12.6442 10.4022 12.9441 10.243 13.1579 9.99385L12.9682 9.83106ZM12.2895 10.1914L12.261 9.94304C12.06 9.96611 11.8579 9.91272 11.695 9.79343L11.5473 9.99512L11.3996 10.1968C11.6643 10.3907 11.9924 10.4772 12.318 10.4398L12.2895 10.1914ZM11.5473 9.99512L11.7078 9.80345L11.5877 9.70286L11.4272 9.89453L11.2667 10.0862L11.3868 10.1868L11.5473 9.99512ZM11.4272 9.89453L11.6036 9.71744L8.28235 6.40787L8.10589 6.58496L7.92942 6.76205L11.2507 10.0716L11.4272 9.89453ZM8.10589 6.58496H7.85589V19.1357H8.10589H8.35589V6.58496H8.10589ZM8.10589 19.1357H7.85589C7.85589 19.3106 7.78391 19.4827 7.64626 19.6168L7.82073 19.7959L7.9952 19.975C8.22525 19.7508 8.35589 19.4512 8.35589 19.1357H8.10589ZM7.82073 19.7959L7.64785 19.6153C7.50076 19.7561 7.30828 19.8395 7.10575 19.8499L7.11858 20.0996L7.13141 20.3493C7.45458 20.3327 7.76045 20.1997 7.99361 19.9765L7.82073 19.7959ZM7.11858 20.0996L7.10399 19.85C6.89442 19.8623 6.68838 19.7996 6.53199 19.6802L6.3803 19.8789L6.22861 20.0776C6.48371 20.2724 6.80875 20.3682 7.13317 20.3492L7.11858 20.0996ZM6.3803 19.8789L6.5291 19.678C6.45505 19.6232 6.39255 19.5544 6.34593 19.4763L6.13128 19.6045L5.91662 19.7326C5.99771 19.8685 6.10534 19.9864 6.2315 20.0798L6.3803 19.8789ZM6.13128 19.6045L6.34601 19.4765C6.2995 19.3985 6.26879 19.3112 6.25567 19.2202L6.00823 19.2559L5.76079 19.2915C5.78316 19.4467 5.83568 19.5969 5.91654 19.7325L6.13128 19.6045ZM6.00823 19.2559L6.2577 19.2396L6.24989 19.1195L6.00042 19.1357L5.75094 19.152L5.75876 19.2721L6.00823 19.2559ZM6.00042 19.1357H6.25042V6.62989H6.00042H5.75042V19.1357H6.00042ZM6.00042 6.62989L5.82207 6.45469L2.6248 9.70958L2.80315 9.88477L2.9815 10.06L6.17876 6.80508L6.00042 6.62989ZM2.80315 9.88477L2.6248 9.70958C2.48269 9.85425 2.29186 9.94 2.09021 9.9495L2.10198 10.1992L2.11374 10.4489C2.44218 10.4335 2.75173 10.2939 2.9815 10.06L2.80315 9.88477ZM2.10198 10.1992L2.09036 9.94949C1.88815 9.9589 1.68925 9.89147 1.53466 9.76106L1.37346 9.95215L1.21226 10.1432C1.4633 10.355 1.78569 10.4642 2.1136 10.449L2.10198 10.1992ZM1.37346 9.95215L1.53479 9.76117C1.38004 9.63045 1.27999 9.44568 1.2554 9.24499L1.00725 9.27539L0.759108 9.3058C0.799077 9.63198 0.961389 9.93132 1.21214 10.1431L1.37346 9.95215ZM1.00725 9.27539L1.25541 9.24507C1.23088 9.04437 1.28347 8.84099 1.40222 8.67676L1.19963 8.53028L0.997045 8.38379C0.804699 8.64981 0.719228 8.9794 0.759098 9.30571L1.00725 9.27539ZM1.19963 8.53028L1.39194 8.69002L1.49253 8.56892L1.30022 8.40918L1.10791 8.24944L1.00733 8.37053L1.19963 8.53028ZM1.30022 8.40918L1.47861 8.58433L6.47959 3.49058L6.3012 3.31543L6.1228 3.14029L1.12183 8.23404L1.30022 8.40918ZM6.3012 3.31543L6.4795 3.49066C6.61473 3.35307 6.79568 3.26861 6.98825 3.2531L6.96819 3.00391L6.94813 2.75472C6.63599 2.77985 6.3426 2.91664 6.12289 3.1402L6.3012 3.31543ZM16.8959 3.00196L16.883 3.25162C17.0856 3.2621 17.2782 3.34552 17.4252 3.48623L17.5981 3.30567L17.771 3.12511C17.5378 2.90182 17.2318 2.76899 16.9088 2.75229L16.8959 3.00196ZM17.5981 3.30567L17.4236 3.48469C17.5607 3.61836 17.6322 3.79044 17.6323 3.96583L17.8823 3.96582L18.1323 3.96582C18.1322 3.65108 18.0029 3.35121 17.7726 3.12665L17.5981 3.30567ZM17.8823 3.96582H17.6323V16.5166H17.8823H18.1323V3.96582H17.8823ZM17.8823 16.5166L18.0587 16.6937L21.381 13.3841L21.2045 13.207L21.0281 13.0299L17.7058 16.3395L17.8823 16.5166ZM21.2045 13.207L21.3658 13.3981L21.4849 13.2975L21.3237 13.1064L21.1624 12.9154L21.0432 13.016L21.2045 13.207ZM21.3237 13.1064L21.4714 13.3081C21.6348 13.1884 21.8377 13.1345 22.0382 13.1575L22.0668 12.9092L22.0954 12.6608C21.7691 12.6233 21.4404 12.711 21.1759 12.9048L21.3237 13.1064ZM22.0668 12.9092L22.0381 13.1575C22.2391 13.1807 22.4242 13.279 22.5558 13.4323L22.7455 13.2695L22.9353 13.1067C22.7215 12.8577 22.4213 12.6984 22.0955 12.6608L22.0668 12.9092ZM22.7455 13.2695L22.5558 13.4323C22.6874 13.5857 22.7563 13.7835 22.7486 13.9857L22.9985 13.9951L23.2483 14.0046C23.2607 13.6768 23.149 13.3559 22.9353 13.1068L22.7455 13.2695ZM22.9985 13.9951L22.7486 13.9856C22.741 14.1874 22.657 14.3793 22.514 14.5225L22.6908 14.6992L22.8677 14.8759C23.0994 14.6439 23.2358 14.3328 23.2483 14.0046L22.9985 13.9951ZM22.6908 14.6992L22.5145 14.5221L17.3953 19.6187L17.5717 19.7959L17.7481 19.9731L22.8672 14.8764L22.6908 14.6992ZM17.5717 19.7959L17.4097 19.6055L17.2915 19.7061L17.4535 19.8965L17.6156 20.0869L17.7338 19.9863L17.5717 19.7959ZM17.4535 19.8965L17.3054 19.6951C17.1501 19.8093 16.9581 19.8638 16.7654 19.8484L16.7455 20.0977L16.7257 20.3469C17.0377 20.3717 17.3491 20.2837 17.6017 20.0979L17.4535 19.8965ZM16.7455 20.0977L16.7655 19.8485C16.573 19.833 16.3922 19.7486 16.2568 19.6109L16.0785 19.7861L15.9003 19.9614C16.12 20.1849 16.4131 20.3218 16.7256 20.3469L16.7455 20.0977ZM16.0785 19.7861L16.2569 19.611L11.255 14.5163L11.0766 14.6914L10.8982 14.8666L15.9001 19.9613L16.0785 19.7861ZM11.0766 14.6914L11.2689 14.5317L11.1683 14.4106L10.976 14.5703L10.7837 14.7301L10.8843 14.8511L11.0766 14.6914ZM10.976 14.5703L11.1787 14.4239C11.0603 14.2601 11.0082 14.0574 11.0328 13.8565L10.7846 13.8262L10.5364 13.7959C10.4967 14.1216 10.581 14.4505 10.7733 14.7167L10.976 14.5703ZM10.7846 13.8262L11.0327 13.8566C11.0574 13.6553 11.1569 13.4708 11.3112 13.3404L11.1498 13.1494L10.9885 12.9585C10.7374 13.1706 10.5763 13.4702 10.5364 13.7958L10.7846 13.8262ZM11.1498 13.1494L11.3111 13.3405C11.4656 13.2101 11.6645 13.1427 11.8667 13.1521L11.8783 12.9023L11.8899 12.6526C11.5621 12.6374 11.2397 12.7465 10.9886 12.9584L11.1498 13.1494ZM11.8783 12.9023L11.8666 13.1521C12.069 13.1616 12.2606 13.247 12.4022 13.391L12.5805 13.2158L12.7588 13.0406C12.5285 12.8062 12.2177 12.668 11.8901 12.6526L11.8783 12.9023ZM12.5805 13.2158L12.4021 13.391L15.5984 16.6449L15.7768 16.4697L15.9551 16.2945L12.7588 13.0406L12.5805 13.2158ZM15.7768 16.4697H16.0268V3.96582H15.7768H15.5268V16.4697H15.7768ZM15.7768 3.96582L16.0263 3.98205L16.0341 3.86193L15.7846 3.84571L15.5351 3.82948L15.5273 3.9496L15.7768 3.96582ZM15.7846 3.84571L16.032 3.88137C16.045 3.79139 16.0761 3.70428 16.1233 3.62519L15.9086 3.49707L15.6939 3.36895C15.6135 3.50372 15.5597 3.65353 15.5372 3.81004L15.7846 3.84571ZM15.9086 3.49707L16.1233 3.62526C16.17 3.547 16.2324 3.47837 16.3064 3.42362L16.1576 3.22266L16.0089 3.0217C15.8825 3.11524 15.7751 3.23311 15.694 3.36888L15.9086 3.49707ZM16.1576 3.22266L16.3093 3.42143C16.4659 3.30198 16.6718 3.23921 16.8812 3.25152L16.8959 3.00196L16.9106 2.75239C16.586 2.73329 16.2611 2.82933 16.006 3.02389L16.1576 3.22266Z" fill="#2744FF"/>
</svg>
