<svg width="24" height="24" viewBox="0 0 24 24" fill="none" xmlns="http://www.w3.org/2000/svg">
<g clip-path="url(#clip0_289_84182)">
<path d="M16.6708 20.6046C16.4551 20.6046 16.2393 20.5506 16.0055 20.4247L12.373 18.5186C12.2831 18.4647 12.1572 18.4287 12.0134 18.4287C11.8875 18.4287 11.7437 18.4647 11.6537 18.5006L8.03928 20.4247C7.82349 20.5506 7.6077 20.6046 7.35595 20.6046C6.92437 20.6046 6.51077 20.4067 6.22303 20.0831C5.93532 19.7594 5.82744 19.3278 5.89935 18.8962L6.60068 14.8682C6.63665 14.6164 6.54674 14.3647 6.36689 14.1848L3.45376 11.3616C3.04016 10.966 2.8963 10.3905 3.07613 9.85105C3.25593 9.31156 3.70551 8.93393 4.26297 8.84402L8.29103 8.2506C8.54279 8.21463 8.77654 8.05279 8.88444 7.837L10.6827 4.16858C10.9344 3.66508 11.4379 3.35938 11.9954 3.35938C12.5529 3.35938 13.0564 3.66508 13.3081 4.16858L15.1064 7.837C15.2322 8.07079 15.448 8.21463 15.6998 8.2506L19.7279 8.84404C20.2853 8.93395 20.7349 9.31158 20.9147 9.83307C21.0945 10.3725 20.9507 10.948 20.5551 11.3436L17.6599 14.1848C17.4621 14.3646 17.3901 14.6164 17.4261 14.8682L18.1094 18.8782C18.1814 19.3098 18.0735 19.7414 17.7857 20.0651C17.516 20.4067 17.1024 20.6046 16.6708 20.6046Z" fill="#999999"/>
</g>
<defs>
<clipPath id="clip0_289_84182">
<rect width="18" height="17.9824" fill="white" transform="translate(3 3)"/>
</clipPath>
</defs>
</svg>
